ffmpeg started on 2025-06-04 at 20:30:54
Report written to "D:\Convert\FFMetrics\reports\ssim_report-6.txt"
Log level: 32
Command line:
ffmpeg -hide_banner -nostdin -i "G:\\\xc0\xed\xe8\xec\xe5\\\xce\xed\xe3\xee\xe8\xed\xe3\xe8\\!_36_\xce\xf1\xe5\xed\xfc_2024\\DreamCast\\\xc4\xe5\xf2\xf1\xea\xe0\xff \xc4\xe5\xeb\xe8\xea\xee\\[DC] Delicos Nursery - 01_Telegram_HEVC.mkv" -i "G:\\\xc0\xed\xe8\xec\xe5\\\xce\xed\xe3\xee\xe8\xed\xe3\xe8\\!_36_\xce\xf1\xe5\xed\xfc_2024\\DreamCast\\\xc4\xe5\xf2\xf1\xea\xe0\xff \xc4\xe5\xeb\xe8\xea\xee\\[DC] Delicos Nursery - 01_Telegram.mp4" -lavfi "[0:v]settb=AVTB,setpts=PTS-STARTPTS,format=pix_fmts=yuv420p10,fps=24000/1001,scale=1920:1080:flags=bicubic[main];[1:v]settb=AVTB,setpts=PTS-STARTPTS,format=pix_fmts=yuv420p,fps=24000/1001,scale=1920:1080:flags=bicubic[ref];[main][ref]ssim=eof_action=endall:stats_file='D\\:/Convert/FFMetrics/logs/ssim_logfile-6.txt'" -f null -
Input #0, matroska,webm, from 'G:\Аниме\Онгоинги\!_36_Осень_2024\DreamCast\Детская Делико\[DC] Delicos Nursery - 01_Telegram_HEVC.mkv':
  Metadata:
    COMPATIBLE_BRANDS: isomiso2avc1mp41
    MAJOR_BRAND     : isom
    MINOR_VERSION   : 512
    ENCODER         : Lavf61.7.100
  Duration: 00:23:46.60, start: -0.021000, bitrate: 1673 kb/s
  Stream #0:0: Video: hevc (Main 10), yuv420p10le(tv, bt709, progressive), 1920x1080 [SAR 1:1 DAR 16:9], 23.98 fps, 23.98 tbr, 1k tbn (default)
      Metadata:
        HANDLER_NAME    : VideoHandler
        VENDOR_ID       : [0][0][0][0]
        ENCODER         : Lavc61.19.100 libx265
        BPS             : 1477060
        DURATION        : 00:23:46.508708333
        NUMBER_OF_FRAMES: 34202
        NUMBER_OF_BYTES : 263379797
        _STATISTICS_WRITING_APP: mkvpropedit v66.0.0 ('Josie') 64-bit
        _STATISTICS_WRITING_DATE_UTC: 2025-05-30 11:38:22
        _STATISTICS_TAGS: BPS DURATION NUMBER_OF_FRAMES NUMBER_OF_BYTES
  Stream #0:1: Audio: aac (LC), 48000 Hz, stereo, fltp (default)
      Metadata:
        HANDLER_NAME    : SoundHandler
        VENDOR_ID       : [0][0][0][0]
        ENCODER         : Lavc61.19.100 aac
        BPS             : 192832
        DURATION        : 00:23:46.602000000
        NUMBER_OF_FRAMES: 66873
        NUMBER_OF_BYTES : 34386947
        _STATISTICS_WRITING_APP: mkvpropedit v66.0.0 ('Josie') 64-bit
        _STATISTICS_WRITING_DATE_UTC: 2025-05-30 11:38:22
        _STATISTICS_TAGS: BPS DURATION NUMBER_OF_FRAMES NUMBER_OF_BYTES
Input #1, mov,mp4,m4a,3gp,3g2,mj2, from 'G:\Аниме\Онгоинги\!_36_Осень_2024\DreamCast\Детская Делико\[DC] Delicos Nursery - 01_Telegram.mp4':
  Metadata:
    major_brand     : isom
    minor_version   : 512
    compatible_brands: isomiso2avc1mp41
    encoder         : Lavf61.1.100
  Duration: 00:23:46.57, start: 0.000000, bitrate: 3874 kb/s
  Stream #1:0[0x1](und): Video: h264 (High) (avc1 / 0x31637661), yuv420p(tv, bt709, progressive), 1920x1080 [SAR 1:1 DAR 16:9], 3727 kb/s, 23.98 fps, 23.98 tbr, 24k tbn (default)
      Metadata:
        handler_name    : VideoHandler
        vendor_id       : [0][0][0][0]
        encoder         : Lavc61.3.100 h264_qsv
  Stream #1:1[0x2](und): Audio: aac (HE-AACv2) (mp4a / 0x6134706D), 48000 Hz, stereo, fltp, 144 kb/s (default)
      Metadata:
        handler_name    : SoundHandler
        vendor_id       : [0][0][0][0]
Stream mapping:
  Stream #0:0 (hevc) -> settb:default
  Stream #1:0 (h264) -> settb:default
  ssim:default -> Stream #0:0 (wrapped_avframe)
  Stream #0:1 -> #0:1 (aac (native) -> pcm_s16le (native))
Output #0, null, to 'pipe:':
  Metadata:
    COMPATIBLE_BRANDS: isomiso2avc1mp41
    MAJOR_BRAND     : isom
    MINOR_VERSION   : 512
    encoder         : Lavf61.7.100
  Stream #0:0: Video: wrapped_avframe, yuv420p10le(tv, bt709, progressive), 1920x1080 [SAR 1:1 DAR 16:9], q=2-31, 200 kb/s, 23.98 fps, 23.98 tbn
      Metadata:
        encoder         : Lavc61.19.100 wrapped_avframe
  Stream #0:1: Audio: pcm_s16le, 48000 Hz, stereo, s16, 1536 kb/s (default)
      Metadata:
        HANDLER_NAME    : SoundHandler
        VENDOR_ID       : [0][0][0][0]
        _STATISTICS_TAGS: BPS DURATION NUMBER_OF_FRAMES NUMBER_OF_BYTES
        BPS             : 192832
        DURATION        : 00:23:46.602000000
        NUMBER_OF_FRAMES: 66873
        NUMBER_OF_BYTES : 34386947
        _STATISTICS_WRITING_APP: mkvpropedit v66.0.0 ('Josie') 64-bit
        _STATISTICS_WRITING_DATE_UTC: 2025-05-30 11:38:22
        encoder         : Lavc61.19.100 pcm_s16le
frame=  176 fps=0.0 q=-0.0 size=N/A time=00:00:07.34 bitrate=N/A speed=14.1x    frame=  381 fps=364 q=-0.0 size=N/A time=00:00:15.89 bitrate=N/A speed=15.2x    frame=  576 fps=371 q=-0.0 size=N/A time=00:00:24.02 bitrate=N/A speed=15.5x    frame=  747 fps=359 q=-0.0 size=N/A time=00:00:31.15 bitrate=N/A speed=  15x    frame=  946 fps=366 q=-0.0 size=N/A time=00:00:39.45 bitrate=N/A speed=15.2x    frame= 1157 fps=373 q=-0.0 size=N/A time=00:00:48.25 bitrate=N/A speed=15.6x    frame= 1413 fps=390 q=-0.0 size=N/A time=00:00:58.93 bitrate=N/A speed=16.3x    frame= 1647 fps=398 q=-0.0 size=N/A time=00:01:08.69 bitrate=N/A speed=16.6x    frame= 1875 fps=404 q=-0.0 size=N/A time=00:01:18.20 bitrate=N/A speed=16.8x    frame= 2125 fps=411 q=-0.0 size=N/A time=00:01:28.63 bitrate=N/A speed=17.1x    frame= 2334 fps=411 q=-0.0 size=N/A time=00:01:37.34 bitrate=N/A speed=17.1x    frame= 2570 fps=414 q=-0.0 size=N/A time=00:01:47.19 bitrate=N/A speed=17.3x    frame= 2751 fps=410 q=-0.0 size=N/A time=00:01:54.73 bitrate=N/A speed=17.1x    frame= 2943 fps=407 q=-0.0 size=N/A time=00:02:02.74 bitrate=N/A speed=  17x    frame= 3139 fps=406 q=-0.0 size=N/A time=00:02:10.92 bitrate=N/A speed=16.9x    frame= 3363 fps=407 q=-0.0 size=N/A time=00:02:20.26 bitrate=N/A speed=  17x    frame= 3556 fps=405 q=-0.0 size=N/A time=00:02:28.31 bitrate=N/A speed=16.9x    frame= 3721 fps=401 q=-0.0 size=N/A time=00:02:35.19 bitrate=N/A speed=16.7x    frame= 3887 fps=396 q=-0.0 size=N/A time=00:02:42.12 bitrate=N/A speed=16.5x    frame= 4093 fps=397 q=-0.0 size=N/A time=00:02:50.71 bitrate=N/A speed=16.5x    frame= 4284 fps=395 q=-0.0 size=N/A time=00:02:58.67 bitrate=N/A speed=16.5x    frame= 4474 fps=394 q=-0.0 size=N/A time=00:03:06.60 bitrate=N/A speed=16.4x    frame= 4683 fps=395 q=-0.0 size=N/A time=00:03:15.32 bitrate=N/A speed=16.5x    frame= 4900 fps=396 q=-0.0 size=N/A time=00:03:24.37 bitrate=N/A speed=16.5x    frame= 5058 fps=392 q=-0.0 size=N/A time=00:03:30.96 bitrate=N/A speed=16.4x    frame= 5262 fps=392 q=-0.0 size=N/A time=00:03:39.46 bitrate=N/A speed=16.4x    frame= 5477 fps=393 q=-0.0 size=N/A time=00:03:48.43 bitrate=N/A speed=16.4x    frame= 5651 fps=391 q=-0.0 size=N/A time=00:03:55.69 bitrate=N/A speed=16.3x    frame= 5862 fps=392 q=-0.0 size=N/A time=00:04:04.49 bitrate=N/A speed=16.3x    frame= 6119 fps=395 q=-0.0 size=N/A time=00:04:15.21 bitrate=N/A speed=16.5x    frame= 6277 fps=393 q=-0.0 size=N/A time=00:04:21.80 bitrate=N/A speed=16.4x    frame= 6412 fps=388 q=-0.0 size=N/A time=00:04:27.43 bitrate=N/A speed=16.2x    frame= 6616 fps=389 q=-0.0 size=N/A time=00:04:35.94 bitrate=N/A speed=16.2x    frame= 6760 fps=385 q=-0.0 size=N/A time=00:04:41.94 bitrate=N/A speed=16.1x    frame= 6899 fps=382 q=-0.0 size=N/A time=00:04:47.74 bitrate=N/A speed=15.9x    frame= 7126 fps=384 q=-0.0 size=N/A time=00:04:57.21 bitrate=N/A speed=  16x    frame= 7368 fps=386 q=-0.0 size=N/A time=00:05:07.30 bitrate=N/A speed=16.1x    frame= 7626 fps=389 q=-0.0 size=N/A time=00:05:18.06 bitrate=N/A speed=16.2x    frame= 7867 fps=391 q=-0.0 size=N/A time=00:05:28.11 bitrate=N/A speed=16.3x    frame= 8117 fps=393 q=-0.0 size=N/A time=00:05:38.54 bitrate=N/A speed=16.4x    frame= 8352 fps=395 q=-0.0 size=N/A time=00:05:48.34 bitrate=N/A speed=16.5x    frame= 8573 fps=396 q=-0.0 size=N/A time=00:05:57.56 bitrate=N/A speed=16.5x    frame= 8794 fps=396 q=-0.0 size=N/A time=00:06:06.78 bitrate=N/A speed=16.5x    frame= 9007 fps=397 q=-0.0 size=N/A time=00:06:15.66 bitrate=N/A speed=16.6x    frame= 9243 fps=398 q=-0.0 size=N/A time=00:06:25.51 bitrate=N/A speed=16.6x    frame= 9440 fps=398 q=-0.0 size=N/A time=00:06:33.72 bitrate=N/A speed=16.6x    frame= 9595 fps=396 q=-0.0 size=N/A time=00:06:40.19 bitrate=N/A speed=16.5x    frame= 9781 fps=395 q=-0.0 size=N/A time=00:06:47.94 bitrate=N/A speed=16.5x    frame= 9982 fps=395 q=-0.0 size=N/A time=00:06:56.33 bitrate=N/A speed=16.5x    frame=10196 fps=395 q=-0.0 size=N/A time=00:07:05.25 bitrate=N/A speed=16.5x    frame=10411 fps=396 q=-0.0 size=N/A time=00:07:14.22 bitrate=N/A speed=16.5x    frame=10662 fps=397 q=-0.0 size=N/A time=00:07:24.69 bitrate=N/A speed=16.6x    frame=10884 fps=398 q=-0.0 size=N/A time=00:07:33.95 bitrate=N/A speed=16.6x    frame=11117 fps=399 q=-0.0 size=N/A time=00:07:43.67 bitrate=N/A speed=16.6x    frame=11296 fps=398 q=-0.0 size=N/A time=00:07:51.13 bitrate=N/A speed=16.6x    frame=11524 fps=399 q=-0.0 size=N/A time=00:08:00.64 bitrate=N/A speed=16.6x    frame=11778 fps=401 q=-0.0 size=N/A time=00:08:11.24 bitrate=N/A speed=16.7x    frame=12002 fps=401 q=-0.0 size=N/A time=00:08:20.58 bitrate=N/A speed=16.7x    frame=12234 fps=402 q=-0.0 size=N/A time=00:08:30.25 bitrate=N/A speed=16.8x    frame=12420 fps=401 q=-0.0 size=N/A time=00:08:38.01 bitrate=N/A speed=16.7x    frame=12655 fps=402 q=-0.0 size=N/A time=00:08:47.81 bitrate=N/A speed=16.8x    frame=12888 fps=403 q=-0.0 size=N/A time=00:08:57.53 bitrate=N/A speed=16.8x    frame=13157 fps=405 q=-0.0 size=N/A time=00:09:08.75 bitrate=N/A speed=16.9x    frame=13405 fps=406 q=-0.0 size=N/A time=00:09:19.10 bitrate=N/A speed=16.9x    frame=13606 fps=406 q=-0.0 size=N/A time=00:09:27.48 bitrate=N/A speed=16.9x    frame=13811 fps=405 q=-0.0 size=N/A time=00:09:36.03 bitrate=N/A speed=16.9x    frame=14024 fps=406 q=-0.0 size=N/A time=00:09:44.91 bitrate=N/A speed=16.9x    frame=14228 fps=405 q=-0.0 size=N/A time=00:09:53.42 bitrate=N/A speed=16.9x    frame=14397 fps=404 q=-0.0 size=N/A time=00:10:00.47 bitrate=N/A speed=16.9x    frame=14617 fps=405 q=-0.0 size=N/A time=00:10:09.65 bitrate=N/A speed=16.9x    frame=14815 fps=404 q=-0.0 size=N/A time=00:10:17.90 bitrate=N/A speed=16.9x    frame=15048 fps=405 q=-0.0 size=N/A time=00:10:27.62 bitrate=N/A speed=16.9x    frame=15246 fps=405 q=-0.0 size=N/A time=00:10:35.88 bitrate=N/A speed=16.9x    frame=15435 fps=404 q=-0.0 size=N/A time=00:10:43.76 bitrate=N/A speed=16.9x    frame=15621 fps=404 q=-0.0 size=N/A time=00:10:51.52 bitrate=N/A speed=16.8x    frame=15841 fps=404 q=-0.0 size=N/A time=00:11:00.70 bitrate=N/A speed=16.9x    frame=16039 fps=404 q=-0.0 size=N/A time=00:11:08.95 bitrate=N/A speed=16.8x    frame=16224 fps=403 q=-0.0 size=N/A time=00:11:16.67 bitrate=N/A speed=16.8x    frame=16442 fps=403 q=-0.0 size=N/A time=00:11:25.76 bitrate=N/A speed=16.8x    frame=16598 fps=402 q=-0.0 size=N/A time=00:11:32.27 bitrate=N/A speed=16.8x    frame=16814 fps=402 q=-0.0 size=N/A time=00:11:41.28 bitrate=N/A speed=16.8x    frame=17003 fps=402 q=-0.0 size=N/A time=00:11:49.16 bitrate=N/A speed=16.8x    frame=17227 fps=402 q=-0.0 size=N/A time=00:11:58.50 bitrate=N/A speed=16.8x    frame=17477 fps=403 q=-0.0 size=N/A time=00:12:08.93 bitrate=N/A speed=16.8x    frame=17732 fps=404 q=-0.0 size=N/A time=00:12:19.57 bitrate=N/A speed=16.9x    frame=17983 fps=405 q=-0.0 size=N/A time=00:12:30.04 bitrate=N/A speed=16.9x    frame=18225 fps=406 q=-0.0 size=N/A time=00:12:40.13 bitrate=N/A speed=16.9x    frame=18476 fps=407 q=-0.0 size=N/A time=00:12:50.60 bitrate=N/A speed=  17x    frame=18731 fps=408 q=-0.0 size=N/A time=00:13:01.23 bitrate=N/A speed=  17x    frame=18967 fps=408 q=-0.0 size=N/A time=00:13:11.08 bitrate=N/A speed=  17x    frame=19192 fps=409 q=-0.0 size=N/A time=00:13:20.46 bitrate=N/A speed=17.1x    frame=19420 fps=409 q=-0.0 size=N/A time=00:13:29.97 bitrate=N/A speed=17.1x    frame=19651 fps=410 q=-0.0 size=N/A time=00:13:39.61 bitrate=N/A speed=17.1x    frame=19914 fps=411 q=-0.0 size=N/A time=00:13:50.57 bitrate=N/A speed=17.1x    frame=20155 fps=411 q=-0.0 size=N/A time=00:14:00.63 bitrate=N/A speed=17.2x    frame=20380 fps=411 q=-0.0 size=N/A time=00:14:10.01 bitrate=N/A speed=17.2x    frame=20631 fps=412 q=-0.0 size=N/A time=00:14:20.48 bitrate=N/A speed=17.2x    frame=20899 fps=413 q=-0.0 size=N/A time=00:14:31.66 bitrate=N/A speed=17.2x    frame=21118 fps=414 q=-0.0 size=N/A time=00:14:40.79 bitrate=N/A speed=17.2x    frame=21363 fps=414 q=-0.0 size=N/A time=00:14:51.01 bitrate=N/A speed=17.3x    frame=21606 fps=415 q=-0.0 size=N/A time=00:15:01.15 bitrate=N/A speed=17.3x    frame=21778 fps=414 q=-0.0 size=N/A time=00:15:08.32 bitrate=N/A speed=17.3x    frame=22017 fps=414 q=-0.0 size=N/A time=00:15:18.29 bitrate=N/A speed=17.3x    frame=22204 fps=414 q=-0.0 size=N/A time=00:15:26.09 bitrate=N/A speed=17.3x    frame=22401 fps=414 q=-0.0 size=N/A time=00:15:34.30 bitrate=N/A speed=17.2x    frame=22597 fps=413 q=-0.0 size=N/A time=00:15:42.48 bitrate=N/A speed=17.2x    frame=22817 fps=413 q=-0.0 size=N/A time=00:15:51.65 bitrate=N/A speed=17.2x    frame=23027 fps=413 q=-0.0 size=N/A time=00:16:00.41 bitrate=N/A speed=17.2x    frame=23247 fps=413 q=-0.0 size=N/A time=00:16:09.59 bitrate=N/A speed=17.2x    frame=23455 fps=413 q=-0.0 size=N/A time=00:16:18.26 bitrate=N/A speed=17.2x    frame=23674 fps=413 q=-0.0 size=N/A time=00:16:27.40 bitrate=N/A speed=17.2x    frame=23899 fps=414 q=-0.0 size=N/A time=00:16:36.78 bitrate=N/A speed=17.3x    frame=24137 fps=414 q=-0.0 size=N/A time=00:16:46.71 bitrate=N/A speed=17.3x    frame=24364 fps=414 q=-0.0 size=N/A time=00:16:56.18 bitrate=N/A speed=17.3x    frame=24615 fps=415 q=-0.0 size=N/A time=00:17:06.65 bitrate=N/A speed=17.3x    frame=24823 fps=415 q=-0.0 size=N/A time=00:17:15.32 bitrate=N/A speed=17.3x    frame=25035 fps=415 q=-0.0 size=N/A time=00:17:24.16 bitrate=N/A speed=17.3x    frame=25258 fps=415 q=-0.0 size=N/A time=00:17:33.46 bitrate=N/A speed=17.3x    frame=25475 fps=415 q=-0.0 size=N/A time=00:17:42.51 bitrate=N/A speed=17.3x    frame=25689 fps=415 q=-0.0 size=N/A time=00:17:51.44 bitrate=N/A speed=17.3x    frame=25883 fps=415 q=-0.0 size=N/A time=00:17:59.53 bitrate=N/A speed=17.3x    frame=26111 fps=415 q=-0.0 size=N/A time=00:18:09.04 bitrate=N/A speed=17.3x    frame=26352 fps=415 q=-0.0 size=N/A time=00:18:19.09 bitrate=N/A speed=17.3x    frame=26546 fps=415 q=-0.0 size=N/A time=00:18:27.18 bitrate=N/A speed=17.3x    frame=26777 fps=415 q=-0.0 size=N/A time=00:18:36.82 bitrate=N/A speed=17.3x    frame=27008 fps=415 q=-0.0 size=N/A time=00:18:46.45 bitrate=N/A speed=17.3x    frame=27228 fps=416 q=-0.0 size=N/A time=00:18:55.63 bitrate=N/A speed=17.3x    frame=27440 fps=415 q=-0.0 size=N/A time=00:19:04.47 bitrate=N/A speed=17.3x    frame=27657 fps=415 q=-0.0 size=N/A time=00:19:13.52 bitrate=N/A speed=17.3x    frame=27864 fps=415 q=-0.0 size=N/A time=00:19:22.16 bitrate=N/A speed=17.3x    frame=28054 fps=415 q=-0.0 size=N/A time=00:19:30.08 bitrate=N/A speed=17.3x    frame=28259 fps=415 q=-0.0 size=N/A time=00:19:38.63 bitrate=N/A speed=17.3x    frame=28444 fps=414 q=-0.0 size=N/A time=00:19:46.35 bitrate=N/A speed=17.3x    frame=28686 fps=415 q=-0.0 size=N/A time=00:19:56.44 bitrate=N/A speed=17.3x    frame=28894 fps=415 q=-0.0 size=N/A time=00:20:05.12 bitrate=N/A speed=17.3x    frame=29088 fps=414 q=-0.0 size=N/A time=00:20:13.21 bitrate=N/A speed=17.3x    frame=29323 fps=415 q=-0.0 size=N/A time=00:20:23.01 bitrate=N/A speed=17.3x    frame=29552 fps=415 q=-0.0 size=N/A time=00:20:32.56 bitrate=N/A speed=17.3x    frame=29739 fps=415 q=-0.0 size=N/A time=00:20:40.36 bitrate=N/A speed=17.3x    frame=29952 fps=415 q=-0.0 size=N/A time=00:20:49.24 bitrate=N/A speed=17.3x    frame=30107 fps=414 q=-0.0 size=N/A time=00:20:55.71 bitrate=N/A speed=17.3x    frame=30341 fps=414 q=-0.0 size=N/A time=00:21:05.47 bitrate=N/A speed=17.3x    frame=30551 fps=414 q=-0.0 size=N/A time=00:21:14.23 bitrate=N/A speed=17.3x    frame=30771 fps=414 q=-0.0 size=N/A time=00:21:23.40 bitrate=N/A speed=17.3x    frame=30973 fps=414 q=-0.0 size=N/A time=00:21:31.83 bitrate=N/A speed=17.3x    frame=31209 fps=414 q=-0.0 size=N/A time=00:21:41.67 bitrate=N/A speed=17.3x    frame=31423 fps=414 q=-0.0 size=N/A time=00:21:50.60 bitrate=N/A speed=17.3x    frame=31680 fps=415 q=-0.0 size=N/A time=00:22:01.32 bitrate=N/A speed=17.3x    frame=31946 fps=415 q=-0.0 size=N/A time=00:22:12.41 bitrate=N/A speed=17.3x    frame=32194 fps=416 q=-0.0 size=N/A time=00:22:22.75 bitrate=N/A speed=17.3x    frame=32429 fps=416 q=-0.0 size=N/A time=00:22:32.55 bitrate=N/A speed=17.4x    frame=32645 fps=416 q=-0.0 size=N/A time=00:22:41.56 bitrate=N/A speed=17.4x    frame=32854 fps=416 q=-0.0 size=N/A time=00:22:50.28 bitrate=N/A speed=17.4x    frame=33034 fps=416 q=-0.0 size=N/A time=00:22:57.79 bitrate=N/A speed=17.3x    frame=33198 fps=415 q=-0.0 size=N/A time=00:23:04.63 bitrate=N/A speed=17.3x    frame=33416 fps=415 q=-0.0 size=N/A time=00:23:13.72 bitrate=N/A speed=17.3x    frame=33564 fps=414 q=-0.0 size=N/A time=00:23:19.89 bitrate=N/A speed=17.3x    frame=33711 fps=413 q=-0.0 size=N/A time=00:23:26.02 bitrate=N/A speed=17.2x    frame=33942 fps=414 q=-0.0 size=N/A time=00:23:35.66 bitrate=N/A speed=17.3x    frame=34151 fps=414 q=-0.0 size=N/A time=00:23:44.38 bitrate=N/A speed=17.3x    [Parsed_ssim_10 @ 0000019f535d2c80] SSIM Y:0.992809 (21.432231) U:0.991542 (20.727367) V:0.991127 (20.519088) All:0.992318 (21.145020)
[out#0/null @ 0000019f535e0180] video:14696KiB audio:267492KiB subtitle:0KiB other streams:0KiB global headers:0KiB muxing overhead: unknown
frame=34202 fps=414 q=-0.0 Lsize=N/A time=00:23:46.50 bitrate=N/A speed=17.3x    
